<?xml version="1.0" encoding="UTF-8" standalone="no"?>
<!DOCTYPE svg PUBLIC "-//W3C//DTD SVG 1.1//EN" "http://www.w3.org/Graphics/SVG/1.1/DTD/svg11.dtd">
<svg version="1.1" xmlns="http://www.w3.org/2000/svg" xmlns:xlink="http://www.w3.org/1999/xlink" preserveAspectRatio="xMidYMid meet" viewBox="0 0 640 640" width="640" height="640"><defs><path d="M457.2 105.73C522.14 105.73 574.76 166.54 574.76 241.55C574.77 449.29 339.65 552.38 339.65 558.1C339.65 558.1 339.65 558.1 339.65 558.1C339.65 552.38 104.52 449.29 104.52 241.54C104.52 166.53 157.16 105.71 222.09 105.71C287.01 105.71 339.65 158.99 339.64 234.02C339.64 159.01 392.27 105.73 457.2 105.73Z" id="fqSzph1zk"></path></defs><g><g><g><g><filter id="shadow10576042" x="95.52" y="96.71" width="489.24" height="471.38" filterUnits="userSpaceOnUse" primitiveUnits="userSpaceOnUse"><feFlood></feFlood><feComposite in2="SourceAlpha" operator="in"></feComposite><feGaussianBlur stdDeviation="1"></feGaussianBlur><feOffset dx="1" dy="1" result="afterOffset"></feOffset><feFlood flood-color="#000000" flood-opacity="0.97"></feFlood><feComposite in2="afterOffset" operator="in"></feComposite><feMorphology operator="dilate" radius="1"></feMorphology><feComposite in2="SourceAlpha" operator="out"></feComposite></filter><path d="M457.2 105.73C522.14 105.73 574.76 166.54 574.76 241.55C574.77 449.29 339.65 552.38 339.65 558.1C339.65 558.1 339.65 558.1 339.65 558.1C339.65 552.38 104.52 449.29 104.52 241.54C104.52 166.53 157.16 105.71 222.09 105.71C287.01 105.71 339.65 158.99 339.64 234.02C339.64 159.01 392.27 105.73 457.2 105.73Z" id="bChvENbPx" fill="white" fill-opacity="1" filter="url(#shadow10576042)"></path></g><use xlink:href="#fqSzph1zk" opacity="1" fill="#f31729" fill-opacity="1"></use><g><use xlink:href="#fqSzph1zk" opacity="1" fill-opacity="0" stroke="#0f0303" stroke-width="1" stroke-opacity="1"></use></g></g></g></g></svg>